<?xml version="1.0" encoding="UTF-8" standalone="no"?>
<!DOCTYPE svg PUBLIC "-//W3C//DTD SVG 1.1//EN"
 "http://www.w3.org/Graphics/SVG/1.1/DTD/svg11.dtd">
<!-- Generated by graphviz version 2.40.1 (20161225.0304)
 -->
<!-- Title: G Pages: 1 -->
<svg width="582pt" height="452pt"
 viewBox="0.00 0.00 581.73 452.00" xmlns="http://www.w3.org/2000/svg" xmlns:xlink="http://www.w3.org/1999/xlink">
<g id="graph0" class="graph" transform="scale(1 1) rotate(0) translate(4 448)">
<title>G</title>
<polygon fill="#ffffff" stroke="transparent" points="-4,4 -4,-448 577.735,-448 577.735,4 -4,4"/>
<!-- A0 -->
<g id="node1" class="node">
<title>A0</title>
<polygon fill="none" stroke="#000000" points="183.305,-165.5 183.305,-201.5 279.104,-201.5 279.104,-165.5 183.305,-165.5"/>
<text text-anchor="middle" x="231.2045" y="-180.5" font-family="Helvetica,sans-Serif" font-size="10.00" fill="#000000">SceneManager</text>
</g>
<!-- A18 -->
<g id="node19" class="node">
<title>A18</title>
<polygon fill="#d3d3d3" stroke="#000000" points="341.3175,-165.5 341.3175,-201.5 429.8855,-201.5 429.8855,-165.5 341.3175,-165.5"/>
<text text-anchor="middle" x="385.6015" y="-180.5" font-family="Helvetica,sans-Serif" font-size="10.00" fill="#000000">ReaderPlugin</text>
</g>
<!-- A0&#45;&gt;A18 -->
<g id="edge7" class="edge">
<title>A0&#45;&gt;A18</title>
<path fill="none" stroke="#000000" d="M291.6128,-183.5C304.6839,-183.5 318.4299,-183.5 331.2517,-183.5"/>
<polygon fill="none" stroke="#000000" points="291.2103,-183.5001 285.2103,-187.5 279.2103,-183.5 285.2104,-179.5 291.2103,-183.5001"/>
<polygon fill="#000000" stroke="#000000" points="341.3058,-183.5 331.3059,-188.0001 336.3058,-183.5 331.3058,-183.5001 331.3058,-183.5001 331.3058,-183.5001 336.3058,-183.5 331.3058,-179.0001 341.3058,-183.5 341.3058,-183.5"/>
</g>
<!-- A1 -->
<g id="node2" class="node">
<title>A1</title>
<polygon fill="none" stroke="#000000" points="189.425,-.5 189.425,-36.5 272.984,-36.5 272.984,-.5 189.425,-.5"/>
<text text-anchor="middle" x="231.2045" y="-15.5" font-family="Helvetica,sans-Serif" font-size="10.00" fill="#000000">FileManager</text>
</g>
<!-- A7 -->
<g id="node8" class="node">
<title>A7</title>
<polygon fill="#d3d3d3" stroke="#000000" points="340.203,-10.5 340.203,-46.5 431,-46.5 431,-10.5 340.203,-10.5"/>
<text text-anchor="middle" x="385.6015" y="-25.5" font-family="Helvetica,sans-Serif" font-size="10.00" fill="#000000">StoragePlugin</text>
</g>
<!-- A1&#45;&gt;A7 -->
<g id="edge4" class="edge">
<title>A1&#45;&gt;A7</title>
<path fill="none" stroke="#000000" d="M285.0455,-21.9872C299.469,-22.9214 315.0935,-23.9333 329.6294,-24.8748"/>
<polygon fill="none" stroke="#000000" points="284.9615,-21.9818 278.7154,-25.5856 272.9866,-21.2061 279.2326,-17.6023 284.9615,-21.9818"/>
<polygon fill="#000000" stroke="#000000" points="339.9887,-25.5457 329.7187,-29.3899 334.9991,-25.2225 330.0096,-24.8993 330.0096,-24.8993 330.0096,-24.8993 334.9991,-25.2225 330.3005,-20.4087 339.9887,-25.5457 339.9887,-25.5457"/>
</g>
<!-- A2 -->
<g id="node3" class="node">
<title>A2</title>
<polygon fill="none" stroke="#000000" points="340.7575,-220.5 340.7575,-256.5 430.4455,-256.5 430.4455,-220.5 340.7575,-220.5"/>
<text text-anchor="middle" x="385.6015" y="-235.5" font-family="Helvetica,sans-Serif" font-size="10.00" fill="#000000">InputManager</text>
</g>
<!-- A14 -->
<g id="node15" class="node">
<title>A14</title>
<polygon fill="none" stroke="#000000" points="504.115,-220.5 504.115,-256.5 558.115,-256.5 558.115,-220.5 504.115,-220.5"/>
<text text-anchor="middle" x="531.115" y="-235.5" font-family="Helvetica,sans-Serif" font-size="10.00" fill="#000000">Input</text>
</g>
<!-- A2&#45;&gt;A14 -->
<g id="edge18" class="edge">
<title>A2&#45;&gt;A14</title>
<path fill="none" stroke="#000000" d="M430.4477,-238.5C450.7398,-238.5 474.4459,-238.5 493.7546,-238.5"/>
<polygon fill="#000000" stroke="#000000" points="503.9796,-238.5 493.9797,-243.0001 498.9796,-238.5 493.9796,-238.5001 493.9796,-238.5001 493.9796,-238.5001 498.9796,-238.5 493.9796,-234.0001 503.9796,-238.5 503.9796,-238.5"/>
</g>
<!-- A15 -->
<g id="node16" class="node">
<title>A15</title>
<polygon fill="none" stroke="#000000" points="504.115,-165.5 504.115,-201.5 558.115,-201.5 558.115,-165.5 504.115,-165.5"/>
<text text-anchor="middle" x="531.115" y="-180.5" font-family="Helvetica,sans-Serif" font-size="10.00" fill="#000000">Gaze</text>
</g>
<!-- A2&#45;&gt;A15 -->
<g id="edge19" class="edge">
<title>A2&#45;&gt;A15</title>
<path fill="none" stroke="#000000" d="M430.4477,-221.5494C451.0216,-213.773 475.1051,-204.6702 494.5566,-197.318"/>
<polygon fill="#000000" stroke="#000000" points="503.9796,-193.7564 496.2166,-201.5014 499.3026,-195.5242 494.6255,-197.2921 494.6255,-197.2921 494.6255,-197.2921 499.3026,-195.5242 493.0345,-193.0827 503.9796,-193.7564 503.9796,-193.7564"/>
</g>
<!-- A3 -->
<g id="node4" class="node">
<title>A3</title>
<polygon fill="none" stroke="#000000" points="183.0305,-377.5 183.0305,-413.5 279.3785,-413.5 279.3785,-377.5 183.0305,-377.5"/>
<text text-anchor="middle" x="231.2045" y="-392.5" font-family="Helvetica,sans-Serif" font-size="10.00" fill="#000000">ObjectManager</text>
</g>
<!-- A10 -->
<g id="node11" class="node">
<title>A10</title>
<polygon fill="none" stroke="#000000" points="334.3825,-330.5 334.3825,-366.5 436.8205,-366.5 436.8205,-330.5 334.3825,-330.5"/>
<text text-anchor="middle" x="385.6015" y="-345.5" font-family="Helvetica,sans-Serif" font-size="10.00" fill="#000000">TransformGizmo</text>
</g>
<!-- A3&#45;&gt;A10 -->
<g id="edge11" class="edge">
<title>A3&#45;&gt;A10</title>
<path fill="none" stroke="#000000" d="M291.2877,-377.2101C302.1244,-373.9113 313.435,-370.4682 324.3057,-367.159"/>
<polygon fill="#000000" stroke="#000000" points="291.1129,-377.2632 286.5379,-382.8372 279.6331,-380.7579 284.2081,-375.1839 291.1129,-377.2632"/>
<polygon fill="#000000" stroke="#000000" points="334.1392,-364.1656 325.8832,-371.3828 329.356,-365.6217 324.5727,-367.0779 324.5727,-367.0779 324.5727,-367.0779 329.356,-365.6217 323.2622,-362.7729 334.1392,-364.1656 334.1392,-364.1656"/>
</g>
<!-- A12 -->
<g id="node13" class="node">
<title>A12</title>
<polygon fill="none" stroke="#000000" points="488.5005,-345.5 488.5005,-381.5 573.7295,-381.5 573.7295,-345.5 488.5005,-345.5"/>
<text text-anchor="middle" x="531.115" y="-360.5" font-family="Helvetica,sans-Serif" font-size="10.00" fill="#000000">ControlMenu</text>
</g>
<!-- A3&#45;&gt;A12 -->
<g id="edge12" class="edge">
<title>A3&#45;&gt;A12</title>
<path fill="none" stroke="#000000" d="M279.4406,-391.7389C321.496,-388.3021 384.109,-382.8056 438.495,-376.5 451.3494,-375.0097 465.1766,-373.1873 478.125,-371.3842"/>
<polygon fill="#000000" stroke="#000000" points="488.2857,-369.9489 479.0135,-375.8035 483.3349,-370.6483 478.384,-371.3477 478.384,-371.3477 478.384,-371.3477 483.3349,-370.6483 477.7546,-366.8919 488.2857,-369.9489 488.2857,-369.9489"/>
</g>
<!-- A13 -->
<g id="node14" class="node">
<title>A13</title>
<polygon fill="none" stroke="#000000" points="488.495,-407.5 488.495,-443.5 573.735,-443.5 573.735,-407.5 488.495,-407.5"/>
<text text-anchor="middle" x="531.115" y="-422.5" font-family="Helvetica,sans-Serif" font-size="10.00" fill="#000000">AudioSource</text>
</g>
<!-- A3&#45;&gt;A13 -->
<g id="edge10" class="edge">
<title>A3&#45;&gt;A13</title>
<path fill="none" stroke="#000000" d="M279.4111,-402.7172C296.2479,-405.087 315.2894,-407.598 332.708,-409.5 382.0076,-414.8833 438.3836,-419.2591 478.4099,-422.0652"/>
<polygon fill="#000000" stroke="#000000" points="488.4755,-422.7619 478.1886,-426.5605 483.4874,-422.4166 478.4994,-422.0713 478.4994,-422.0713 478.4994,-422.0713 483.4874,-422.4166 478.8102,-417.582 488.4755,-422.7619 488.4755,-422.7619"/>
</g>
<!-- A4 -->
<g id="node5" class="node">
<title>A4</title>
<polygon fill="none" stroke="#000000" points="18.621,-55.5 18.621,-91.5 111.08,-91.5 111.08,-55.5 18.621,-55.5"/>
<text text-anchor="middle" x="64.8505" y="-70.5" font-family="Helvetica,sans-Serif" font-size="10.00" fill="#000000">MenuManager</text>
</g>
<!-- A11 -->
<g id="node12" class="node">
<title>A11</title>
<polygon fill="none" stroke="#000000" points="193.8685,-55.5 193.8685,-91.5 268.5405,-91.5 268.5405,-55.5 193.8685,-55.5"/>
<text text-anchor="middle" x="231.2045" y="-70.5" font-family="Helvetica,sans-Serif" font-size="10.00" fill="#000000">MainMenu</text>
</g>
<!-- A4&#45;&gt;A11 -->
<g id="edge1" class="edge">
<title>A4&#45;&gt;A11</title>
<path fill="none" stroke="#000000" d="M123.4689,-73.5C143.1921,-73.5 164.9391,-73.5 183.6992,-73.5"/>
<polygon fill="#000000" stroke="#000000" points="123.1894,-73.5001 117.1893,-77.5 111.1894,-73.5 117.1894,-69.5 123.1894,-73.5001"/>
<polygon fill="#000000" stroke="#000000" points="193.7823,-73.5 183.7824,-78.0001 188.7823,-73.5 183.7823,-73.5001 183.7823,-73.5001 183.7823,-73.5001 188.7823,-73.5 183.7823,-69.0001 193.7823,-73.5 193.7823,-73.5"/>
</g>
<!-- A5 -->
<g id="node6" class="node">
<title>A5</title>
<polygon fill="none" stroke="#000000" points="179.701,-275.5 179.701,-311.5 282.708,-311.5 282.708,-275.5 179.701,-275.5"/>
<text text-anchor="middle" x="231.2045" y="-290.5" font-family="Helvetica,sans-Serif" font-size="10.00" fill="#000000">CameraManager</text>
</g>
<!-- A19 -->
<g id="node20" class="node">
<title>A19</title>
<polygon fill="none" stroke="#000000" points="332.708,-275.5 332.708,-311.5 438.495,-311.5 438.495,-275.5 332.708,-275.5"/>
<text text-anchor="middle" x="385.6015" y="-290.5" font-family="Helvetica,sans-Serif" font-size="10.00" fill="#000000">HoloLensCamera</text>
</g>
<!-- A5&#45;&gt;A19 -->
<g id="edge20" class="edge">
<title>A5&#45;&gt;A19</title>
<path fill="none" stroke="#000000" d="M295.259,-293.5C304.2817,-293.5 313.5512,-293.5 322.5549,-293.5"/>
<polygon fill="#000000" stroke="#000000" points="295.046,-293.5001 289.0459,-297.5 283.046,-293.5 289.046,-289.5 295.046,-293.5001"/>
<polygon fill="#000000" stroke="#000000" points="332.5799,-293.5 322.5799,-298.0001 327.5799,-293.5 322.5799,-293.5001 322.5799,-293.5001 322.5799,-293.5001 327.5799,-293.5 322.5799,-289.0001 332.5799,-293.5 332.5799,-293.5"/>
</g>
<!-- A6 -->
<g id="node7" class="node">
<title>A6</title>
<polygon fill="none" stroke="#000000" points="182.4805,-110.5 182.4805,-146.5 279.9285,-146.5 279.9285,-110.5 182.4805,-110.5"/>
<text text-anchor="middle" x="231.2045" y="-125.5" font-family="Helvetica,sans-Serif" font-size="10.00" fill="#000000">CursorManager</text>
</g>
<!-- A17 -->
<g id="node18" class="node">
<title>A17</title>
<polygon fill="none" stroke="#000000" points="333.828,-110.5 333.828,-146.5 437.375,-146.5 437.375,-110.5 333.828,-110.5"/>
<text text-anchor="middle" x="385.6015" y="-125.5" font-family="Helvetica,sans-Serif" font-size="10.00" fill="#000000">TransformCursor</text>
</g>
<!-- A6&#45;&gt;A17 -->
<g id="edge22" class="edge">
<title>A6&#45;&gt;A17</title>
<path fill="none" stroke="#000000" d="M292.3467,-128.5C302.5869,-128.5 313.2216,-128.5 323.486,-128.5"/>
<polygon fill="#000000" stroke="#000000" points="292.0567,-128.5001 286.0566,-132.5 280.0567,-128.5 286.0567,-124.5 292.0567,-128.5001"/>
<polygon fill="#000000" stroke="#000000" points="333.5987,-128.5 323.5988,-133.0001 328.5987,-128.5 323.5987,-128.5001 323.5987,-128.5001 323.5987,-128.5001 328.5987,-128.5 323.5987,-124.0001 333.5987,-128.5 333.5987,-128.5"/>
</g>
<!-- A9 -->
<g id="node10" class="node">
<title>A9</title>
<polygon fill="none" stroke="#000000" points="504.115,-61.5 504.115,-97.5 558.115,-97.5 558.115,-61.5 504.115,-61.5"/>
<text text-anchor="middle" x="531.115" y="-76.5" font-family="Helvetica,sans-Serif" font-size="10.00" fill="#000000">File</text>
</g>
<!-- A7&#45;&gt;A9 -->
<g id="edge5" class="edge">
<title>A7&#45;&gt;A9</title>
<path fill="none" stroke="#000000" d="M431.2436,-44.4968C451.5429,-51.6113 475.1281,-59.8776 494.2801,-66.59"/>
<polygon fill="#000000" stroke="#000000" points="503.8504,-69.9442 492.9248,-70.8833 499.1318,-68.2904 494.4133,-66.6366 494.4133,-66.6366 494.4133,-66.6366 499.1318,-68.2904 495.9017,-62.3899 503.8504,-69.9442 503.8504,-69.9442"/>
</g>
<!-- A16 -->
<g id="node17" class="node">
<title>A16</title>
<polygon fill="none" stroke="#000000" points="496.0035,-6.5 496.0035,-42.5 566.2265,-42.5 566.2265,-6.5 496.0035,-6.5"/>
<text text-anchor="middle" x="531.115" y="-21.5" font-family="Helvetica,sans-Serif" font-size="10.00" fill="#000000">OneDrive</text>
</g>
<!-- A7&#45;&gt;A16 -->
<g id="edge6" class="edge">
<title>A7&#45;&gt;A16</title>
<path fill="none" stroke="#000000" stroke-dasharray="5,2" d="M431.2436,-27.2453C448.4993,-26.771 468.1296,-26.2314 485.3926,-25.7569"/>
<polygon fill="#000000" stroke="#000000" points="495.793,-25.471 485.9205,-30.2441 490.7949,-25.6084 485.7968,-25.7458 485.7968,-25.7458 485.7968,-25.7458 490.7949,-25.6084 485.6731,-21.2475 495.793,-25.471 495.793,-25.471"/>
</g>
<!-- A8 -->
<g id="node9" class="node">
<title>A8</title>
<polygon fill="none" stroke="#000000" points="502.942,-275.5 502.942,-311.5 559.288,-311.5 559.288,-275.5 502.942,-275.5"/>
<text text-anchor="middle" x="531.115" y="-290.5" font-family="Helvetica,sans-Serif" font-size="10.00" fill="#000000">Scene</text>
</g>
<!-- A10&#45;&gt;A8 -->
<g id="edge16" class="edge">
<title>A10&#45;&gt;A8</title>
<path fill="none" stroke="#000000" stroke-dasharray="5,2" d="M433.2481,-330.4909C452.7801,-323.1084 475.0641,-314.6856 493.4294,-307.7441"/>
<polygon fill="#000000" stroke="#000000" points="502.913,-304.1596 495.1499,-311.9046 498.2359,-305.9274 493.5589,-307.6952 493.5589,-307.6952 493.5589,-307.6952 498.2359,-305.9274 491.9678,-303.4859 502.913,-304.1596 502.913,-304.1596"/>
</g>
<!-- A10&#45;&gt;A12 -->
<g id="edge17" class="edge">
<title>A10&#45;&gt;A12</title>
<path fill="none" stroke="#000000" stroke-dasharray="5,2" d="M436.9041,-353.7884C450.3361,-355.1731 464.8395,-356.6681 478.3466,-358.0605"/>
<polygon fill="#000000" stroke="#000000" points="488.447,-359.1016 478.0383,-362.5524 483.4734,-358.5889 478.4997,-358.0762 478.4997,-358.0762 478.4997,-358.0762 483.4734,-358.5889 478.9612,-353.5999 488.447,-359.1016 488.447,-359.1016"/>
</g>
<!-- A10&#45;&gt;A13 -->
<g id="edge13" class="edge">
<title>A10&#45;&gt;A13</title>
<path fill="none" stroke="#000000" stroke-dasharray="5,2" d="M419.718,-366.5531C440.0781,-377.3269 466.1255,-391.1101 487.9129,-402.6391"/>
<polygon fill="#000000" stroke="#000000" points="496.9605,-407.4268 486.0169,-406.7271 492.5411,-405.0882 488.1217,-402.7496 488.1217,-402.7496 488.1217,-402.7496 492.5411,-405.0882 490.2264,-398.7721 496.9605,-407.4268 496.9605,-407.4268"/>
</g>
<!-- A10&#45;&gt;A14 -->
<g id="edge14" class="edge">
<title>A10&#45;&gt;A14</title>
<path fill="none" stroke="#000000" stroke-dasharray="5,2" d="M424.9962,-330.4294C429.7044,-327.6846 434.317,-324.6925 438.495,-321.5 464.7445,-301.4421 463.3801,-287.9615 488.495,-266.5 490.7035,-264.6128 493.046,-262.7494 495.4519,-260.9346"/>
<polygon fill="#000000" stroke="#000000" points="503.7735,-254.9884 498.2534,-264.4636 499.7053,-257.8953 495.6372,-260.8023 495.6372,-260.8023 495.6372,-260.8023 499.7053,-257.8953 493.0209,-257.1409 503.7735,-254.9884 503.7735,-254.9884"/>
</g>
<!-- A10&#45;&gt;A15 -->
<g id="edge15" class="edge">
<title>A10&#45;&gt;A15</title>
<path fill="none" stroke="#000000" stroke-dasharray="5,2" d="M427.8963,-330.3661C431.7415,-327.7295 435.3608,-324.7797 438.495,-321.5 475.5976,-282.6754 453.5681,-252.2929 488.495,-211.5 490.683,-208.9445 493.1606,-206.5307 495.7934,-204.2729"/>
<polygon fill="#000000" stroke="#000000" points="504.024,-197.9815 498.812,-207.6296 500.0516,-201.018 496.0792,-204.0545 496.0792,-204.0545 496.0792,-204.0545 500.0516,-201.018 493.3463,-200.4793 504.024,-197.9815 504.024,-197.9815"/>
</g>
<!-- A11&#45;&gt;A7 -->
<g id="edge3" class="edge">
<title>A11&#45;&gt;A7</title>
<path fill="none" stroke="#000000" stroke-dasharray="5,2" d="M268.5797,-62.6068C287.0635,-57.2195 309.7416,-50.6098 330.1963,-44.6482"/>
<polygon fill="#000000" stroke="#000000" points="340.031,-41.7818 331.6897,-48.9003 335.2307,-43.1809 330.4305,-44.58 330.4305,-44.58 330.4305,-44.58 335.2307,-43.1809 329.1713,-40.2598 340.031,-41.7818 340.031,-41.7818"/>
<text text-anchor="middle" x="324.994" y="-51.9685" font-family="Helvetica,sans-Serif" font-size="10.00" fill="#000000">sync</text>
</g>
<!-- A11&#45;&gt;A9 -->
<g id="edge2" class="edge">
<title>A11&#45;&gt;A9</title>
<path fill="none" stroke="#000000" stroke-dasharray="5,2" d="M268.582,-74.2478C326.2331,-75.4011 436.2005,-77.6011 493.8086,-78.7536"/>
<polygon fill="#000000" stroke="#000000" points="503.9316,-78.9562 493.8435,-83.2552 498.9326,-78.8561 493.9336,-78.7561 493.9336,-78.7561 493.9336,-78.7561 498.9326,-78.8561 494.0236,-74.257 503.9316,-78.9562 503.9316,-78.9562"/>
<text text-anchor="middle" x="485.64" y="-84.0443" font-family="Helvetica,sans-Serif" font-size="10.00" fill="#000000">open</text>
</g>
<!-- A17&#45;&gt;A14 -->
<g id="edge24" class="edge">
<title>A17&#45;&gt;A14</title>
<path fill="none" stroke="#000000" stroke-dasharray="5,2" d="M423.5921,-146.5352C428.7814,-149.5866 433.8981,-152.9329 438.495,-156.5 464.5945,-176.7527 463.2032,-190.2472 488.495,-211.5 490.6954,-213.349 493.0319,-215.1676 495.4335,-216.9331"/>
<polygon fill="#000000" stroke="#000000" points="503.7462,-222.699 492.9645,-220.6972 499.6377,-219.8493 495.5293,-216.9996 495.5293,-216.9996 495.5293,-216.9996 499.6377,-219.8493 498.0941,-213.302 503.7462,-222.699 503.7462,-222.699"/>
</g>
<!-- A17&#45;&gt;A15 -->
<g id="edge23" class="edge">
<title>A17&#45;&gt;A15</title>
<path fill="none" stroke="#000000" stroke-dasharray="5,2" d="M433.2481,-146.5091C453.0612,-153.9979 475.706,-162.5569 494.2197,-169.5546"/>
<polygon fill="#000000" stroke="#000000" points="503.761,-173.161 492.8159,-173.8347 499.084,-171.3931 494.4069,-169.6253 494.4069,-169.6253 494.4069,-169.6253 499.084,-171.3931 495.998,-165.416 503.761,-173.161 503.761,-173.161"/>
</g>
<!-- A18&#45;&gt;A8 -->
<g id="edge9" class="edge">
<title>A18&#45;&gt;A8</title>
<path fill="none" stroke="#000000" d="M423.5921,-201.5352C428.7814,-204.5866 433.8981,-207.9329 438.495,-211.5 464.5945,-231.7527 463.2032,-245.2472 488.495,-266.5 490.4313,-268.1271 492.4731,-269.7307 494.5718,-271.2953"/>
<polygon fill="#000000" stroke="#000000" points="502.8467,-277.1044 492.0766,-275.0417 498.7545,-274.2315 494.6622,-271.3587 494.6622,-271.3587 494.6622,-271.3587 498.7545,-274.2315 497.2478,-267.6756 502.8467,-277.1044 502.8467,-277.1044"/>
</g>
<!-- A18&#45;&gt;A9 -->
<g id="edge8" class="edge">
<title>A18&#45;&gt;A9</title>
<path fill="none" stroke="#000000" stroke-dasharray="5,2" d="M423.4635,-165.4748C428.6188,-162.6468 433.7604,-159.6208 438.495,-156.5 461.9628,-141.0314 486.3206,-120.579 504.1641,-104.6407"/>
<polygon fill="#000000" stroke="#000000" points="511.8774,-97.6695 507.4758,-107.7132 508.1679,-101.0221 504.4584,-104.3746 504.4584,-104.3746 504.4584,-104.3746 508.1679,-101.0221 501.4411,-101.0361 511.8774,-97.6695 511.8774,-97.6695"/>
</g>
<!-- A19&#45;&gt;A8 -->
<g id="edge21" class="edge">
<title>A19&#45;&gt;A8</title>
<path fill="none" stroke="#000000" stroke-dasharray="5,2" d="M438.5468,-293.5C456.4117,-293.5 476.0015,-293.5 492.5413,-293.5"/>
<polygon fill="#000000" stroke="#000000" points="502.9211,-293.5 492.9211,-298.0001 497.9211,-293.5 492.9211,-293.5001 492.9211,-293.5001 492.9211,-293.5001 497.9211,-293.5 492.921,-289.0001 502.9211,-293.5 502.9211,-293.5"/>
</g>
<!-- A20 -->
<g id="node21" class="node">
<title>A20</title>
<polygon fill="none" stroke="#000000" points="123.5518,-154.5 .1492,-154.5 .1492,-110.5 129.5518,-110.5 129.5518,-148.5 123.5518,-154.5"/>
<polyline fill="none" stroke="#000000" points="123.5518,-154.5 123.5518,-148.5 "/>
<polyline fill="none" stroke="#000000" points="129.5518,-148.5 123.5518,-148.5 "/>
<text text-anchor="middle" x="64.8505" y="-141.5" font-family="Helvetica,sans-Serif" font-size="10.00" fill="#000000">MainMenu needs to be</text>
<text text-anchor="middle" x="64.8505" y="-129.5" font-family="Helvetica,sans-Serif" font-size="10.00" fill="#000000">aware of OBJ files</text>
<text text-anchor="middle" x="64.8505" y="-117.5" font-family="Helvetica,sans-Serif" font-size="10.00" fill="#000000">in LocalCache</text>
</g>
<!-- A21 -->
<g id="node22" class="node">
<title>A21</title>
<polygon fill="none" stroke="#000000" points="116.5857,-216.5 7.1153,-216.5 7.1153,-172.5 122.5857,-172.5 122.5857,-210.5 116.5857,-216.5"/>
<polyline fill="none" stroke="#000000" points="116.5857,-216.5 116.5857,-210.5 "/>
<polyline fill="none" stroke="#000000" points="122.5857,-210.5 116.5857,-210.5 "/>
<text text-anchor="middle" x="64.8505" y="-203.5" font-family="Helvetica,sans-Serif" font-size="10.00" fill="#000000">ReaderPlugin</text>
<text text-anchor="middle" x="64.8505" y="-191.5" font-family="Helvetica,sans-Serif" font-size="10.00" fill="#000000">Update() checks for</text>
<text text-anchor="middle" x="64.8505" y="-179.5" font-family="Helvetica,sans-Serif" font-size="10.00" fill="#000000">Path prop to be set</text>
</g>
</g>
</svg>
